# xmcd CD database file
#
# Track frame offsets:
#	150
#	20971
#	38543
#	54534
#	69825
#	90594
#	107346
#	126120
#	148695
#	164396
#	186852
#
# Disc length: 2733 seconds
#
# Revision: 0
# Processed by: cddbd v1.5.2PL0 Copyright (c) Steve Scherf et al.
# Submitted via: CDex 1.51
#
DISCID=8e0aab0b
DTITLE=Turnpike Troubadours - Goodbye Normal Street
DYEAR=2012
DGENRE=Country
TTITLE0=Gin Smoke and Lies
TTITLE1=Before the Devil Knows We're Dead
TTITLE2=Southeastern Son
TTITLE3=Blue Star
TTITLE4=Call a Spade a Spade
TTITLE5=Morgan Street
TTITLE6=Gone, Gone, Gone
TTITLE7=Good Lord Lorrie
TTITLE8=Empty as a Drum
TTITLE9=Wrecked
TTITLE10=Quit While I'm Ahead
EXTD=YEAR: 2012
EXTT0=
EXTT1=
EXTT2=
EXTT3=
EXTT4=
EXTT5=
EXTT6=
EXTT7=
EXTT8=
EXTT9=
EXTT10=
PLAYORDER=
